<svg xmlns="http://www.w3.org/2000/svg" width="82.744" height="77.629" viewBox="0 0 82.744 77.629" fill="#95519e" id="featureIcon1"><path data-name="Path 5593" d="M11.479 0a.981.981 0 0 0-.981.981v4.808H8.83A8.83 8.83 0 0 0 0 14.619v39.643a8.83 8.83 0 0 0 8.83 8.83h29.925a22.762 22.762 0 1 0 34.537-26.69V14.718a8.83 8.83 0 0 0-8.83-8.83h-1.669V.982a.981.981 0 1 0-1.962 0V5.79H12.459V.982a.981.981 0 0 0-.981-.981Zm69.368 54.846a20.9 20.9 0 1 1-6.156-14.715 20.8 20.8 0 0 1 6.156 14.715Zm-19.918-47.1v3.826a.981.981 0 1 0 1.962 0V7.849h1.668a6.867 6.867 0 0 1 6.868 6.868v20.408a22.763 22.763 0 0 0-25.117 1.57.981.981 0 0 0-.981-.883h-3.532a.981.981 0 0 0 0 1.962h3.042a22.761 22.761 0 0 0-6.77 23.253H8.83a6.868 6.868 0 0 1-6.868-6.868V14.717A6.868 6.868 0 0 1 8.83 7.849h1.668v3.826a.981.981 0 1 0 1.962 0V7.849Z"></path><path data-name="Path 5594" d="M28.061 26.393h3.434a.981.981 0 0 0 0-1.962h-3.434a.981.981 0 1 0 0 1.962Z"></path><path data-name="Path 5595" d="M14.325 26.393h3.434a.981.981 0 1 0 0-1.962h-3.434a.981.981 0 1 0 0 1.962Z"></path><path data-name="Path 5596" d="M41.797 26.393h3.434a.981.981 0 1 0 0-1.962h-3.434a.981.981 0 0 0 0 1.962Z"></path><path data-name="Path 5597" d="M55.534 26.393h3.434a.981.981 0 1 0 0-1.962h-3.434a.981.981 0 1 0 0 1.962Z"></path><path data-name="Path 5598" d="M28.061 37.873h3.434a.981.981 0 0 0 0-1.962h-3.434a.981.981 0 1 0 0 1.962Z"></path><path data-name="Path 5599" d="M14.325 37.873h3.434a.981.981 0 1 0 0-1.962h-3.434a.981.981 0 1 0 0 1.962Z"></path><path data-name="Path 5600" d="M28.061 49.254h3.434a.981.981 0 0 0 0-1.962h-3.434a.981.981 0 1 0 0 1.962Z"></path><path data-name="Path 5601" d="M14.325 49.254h3.434a.981.981 0 1 0 0-1.962h-3.434a.981.981 0 1 0 0 1.962Z"></path><path data-name="Path 5602" d="M59.851 44.545a.982.982 0 0 0-1.963 0v12.068a.981.981 0 0 0 .981.981h9.125a.981.981 0 0 0 0-1.962h-8.143Z"></path></svg>