<svg xmlns="http://www.w3.org/2000/svg" width="95.843" height="70.611" viewBox="0 0 95.843 70.611" fill="#95519e" id="feature"><path data-name="Path 5571" d="M42.104 53.634a5.26 5.26 0 0 1 1.666-6.079l2.109-1.727H1.948V1.948H70.92v16.035h1.948V0H.004v47.776h29.348a5.256 5.256 0 0 1 1.422 5.858 6.522 6.522 0 0 1-5.914 4.431h-4.833v8.206h32.816v-8.209h-4.831a6.522 6.522 0 0 1-5.913-4.431Zm-9.494.654a7.16 7.16 0 0 0-.692-6.513h9.042a7.158 7.158 0 0 0-.69 6.513 8.832 8.832 0 0 0 2.657 3.775H29.946a8.815 8.815 0 0 0 2.659-3.775Zm18.289 5.724v4.31H21.974v-4.31h28.92Z"></path><path data-name="Path 5572" d="M14.137 42.518V27.027h-8.6v15.492h8.6ZM7.488 28.975h4.7v11.6h-4.7Z"></path><path data-name="Path 5573" d="M40.732 42.518V5.48h-8.6v37.038ZM34.084 7.43h4.7v33.14h-4.7Z"></path><path data-name="Path 5574" d="M27.436 42.518V19.639h-8.6v22.88h8.6Zm-6.649-20.931h4.7v18.982h-4.7Z"></path><path data-name="Path 5575" d="M58.733 42.518h8.6V27.027h-8.6Zm1.948-13.543h4.7v11.6h-4.7Z"></path><path data-name="Path 5576" d="m75.816 43.867-2.671 2.671-2.4-2.4a15.665 15.665 0 1 0-1.377 1.377l2.4 2.4-2.67 2.669 20.027 20.027 6.718-6.718ZM49.362 24.131a13.788 13.788 0 0 1 2.723-2.1v18.538H47.16a13.692 13.692 0 0 1 2.2-16.44Zm0 19.348c-.308-.308-.6-.63-.868-.961h5.539V21.075a13.68 13.68 0 1 1-4.672 22.4Zm22.491 7.105 3.964-3.964 17.272 17.272-3.964 3.964Z"></path></svg>