<svg xmlns="http://www.w3.org/2000/svg" id="featureIcon3" width="83.369" height="69.299" viewBox="0 0 83.369 69.299" fill="#95519e" class="f3"><path id="Path_5605" data-name="Path 5605" d="M152.984 95.2a7.349 7.349 0 0 0-7.35 7.35v18.375h-10.605a7.456 7.456 0 0 0-7.35 7.351v26.249a10.079 10.079 0 0 0 10.08 9.975h61a12.285 12.285 0 0 0 12.285-12.285v-49.666a7.455 7.455 0 0 0-7.35-7.35Zm-15.225 67.2a7.982 7.982 0 0 1-7.98-7.875v-26.252a5.355 5.355 0 0 1 5.25-5.25h10.605v31.5a7.982 7.982 0 0 1-7.875 7.875Zm71.189-59.849v49.664a10.185 10.185 0 0 1-10.185 10.185h-54.914a9.978 9.978 0 0 0 3.885-7.875v-51.976a5.355 5.355 0 0 1 5.25-5.25H203.7a5.355 5.355 0 0 1 5.25 5.25Z" transform="translate(-127.679 -95.199)"></path><path id="Path_5606" data-name="Path 5606" d="M303.449 190.817h16.275a1.049 1.049 0 0 0 1.049-1.05 1.155 1.155 0 0 0-1.049-1.05h-16.275a1.156 1.156 0 0 0-1.05 1.05 1.05 1.05 0 0 0 1.05 1.05Z" transform="translate(-269.639 -171.183)"></path><path id="Path_5607" data-name="Path 5607" d="M335.368 266.532h-31.92a1.05 1.05 0 0 0-1.05 1.05 1.157 1.157 0 0 0 1.05 1.05h31.92a1.05 1.05 0 0 0 1.05-1.05.945.945 0 0 0-1.05-1.05Z" transform="translate(-269.639 -234.403)"></path><path id="Path_5608" data-name="Path 5608" d="M335.368 343.84h-31.92a1.156 1.156 0 0 0-1.05 1.05 1.05 1.05 0 0 0 1.05 1.05h31.92a.945.945 0 0 0 1.05-1.05 1.05 1.05 0 0 0-1.05-1.05Z" transform="translate(-269.639 -297.221)"></path></svg>